<svg width="497" height="331" viewBox="0 0 497 331" fill="none" xmlns="http://www.w3.org/2000/svg">
<path d="M14.6613 101.164V92.6958H41.8963V129.543C41.8963 135.875 40.2943 140.72 37.0902 144.076C33.886 147.433 29.5757 149.111 24.1592 149.111C17.6747 149.111 12.1438 146.823 7.56645 142.245L12.9448 134.807C16.5304 138.24 20.0778 139.957 23.5871 139.957C26.1046 139.957 28.2025 139.117 29.8809 137.439C31.5592 135.761 32.3984 133.32 32.3984 130.115V101.164H14.6613ZM95.2836 131.26H61.8691C62.098 134.311 63.5094 136.791 66.1032 138.698C68.697 140.605 71.7104 141.559 75.1434 141.559C80.5599 141.559 84.6032 139.88 87.2733 136.524L92.4228 142.131C87.8454 146.937 81.8568 149.34 74.4568 149.34C68.3537 149.34 63.2423 147.318 59.1228 143.275C55.0032 139.232 52.9434 133.892 52.9434 127.255C52.9434 120.77 55.0413 115.506 59.2372 111.463C63.4331 107.42 68.5063 105.398 74.4568 105.398C80.4073 105.398 85.3661 107.191 89.3331 110.776C93.3001 114.362 95.2836 119.13 95.2836 125.08V131.26ZM86.3578 124.165C86.3578 120.732 85.2516 118.024 83.0393 116.04C80.9032 114.057 78.1186 113.065 74.6856 113.065C71.2527 113.065 68.2392 114.095 65.6454 116.155C63.1279 118.214 61.8691 120.884 61.8691 124.165H86.3578ZM116.213 106.084H127.428V113.294H116.213V148.654H107.288V113.294H101.909V106.084H107.288V102.766C107.288 98.4175 108.623 94.9082 111.293 92.2381C113.963 89.4917 117.243 88.1185 121.134 88.1185C125.025 88.1185 128.496 89.5298 131.547 92.3525L127.886 98.6463C126.055 96.8154 124.224 95.8999 122.393 95.8999C120.486 95.8999 118.96 96.5102 117.815 97.7309C116.747 98.8752 116.213 100.477 116.213 102.537V106.084ZM175.715 131.26H142.301C142.53 134.311 143.941 136.791 146.535 138.698C149.129 140.605 152.142 141.559 155.575 141.559C160.992 141.559 165.035 139.88 167.705 136.524L172.854 142.131C168.277 146.937 162.288 149.34 154.888 149.34C148.785 149.34 143.674 147.318 139.554 143.275C135.435 139.232 133.375 133.892 133.375 127.255C133.375 120.77 135.473 115.506 139.669 111.463C143.865 107.42 148.938 105.398 154.888 105.398C160.839 105.398 165.798 107.191 169.765 110.776C173.732 114.362 175.715 119.13 175.715 125.08V131.26ZM166.789 124.165C166.789 120.732 165.683 118.024 163.471 116.04C161.335 114.057 158.55 113.065 155.117 113.065C151.684 113.065 148.671 114.095 146.077 116.155C143.56 118.214 142.301 120.884 142.301 124.165H166.789ZM194.585 130.344V148.654H185.659V106.084H194.585V114.553C196.035 111.882 197.98 109.708 200.421 108.03C202.939 106.351 205.571 105.474 208.317 105.398L208.432 114.438H207.974C203.625 114.438 200.307 115.849 198.018 118.672C195.73 121.495 194.585 125.386 194.585 130.344ZM232.068 149.34C225.202 149.34 219.022 147.204 213.53 142.932L217.878 135.951C222.76 139.69 227.567 141.559 232.297 141.559C234.28 141.559 235.844 141.101 236.988 140.186C238.209 139.194 238.819 137.973 238.819 136.524C238.819 134.388 235.997 132.48 230.351 130.802C230.199 130.726 230.008 130.649 229.779 130.573C229.626 130.497 229.512 130.459 229.436 130.459C220.586 128.094 216.161 124.089 216.161 118.443C216.161 114.476 217.649 111.31 220.624 108.945C223.676 106.58 227.681 105.398 232.64 105.398C237.522 105.398 242.176 106.847 246.601 109.746L243.282 116.383C239.849 114.095 236.073 112.95 231.953 112.95C227.147 112.95 224.744 114.476 224.744 117.528C224.744 118.825 225.202 119.778 226.117 120.389C227.109 120.923 228.711 121.457 230.923 121.991C234.28 122.906 237.103 123.822 239.391 124.737C240.917 125.424 242.252 126.148 243.397 126.911C246.295 128.895 247.745 131.908 247.745 135.951C247.745 139.918 246.257 143.161 243.282 145.678C240.383 148.12 236.645 149.34 232.068 149.34ZM277.529 141.33C281.42 141.33 284.624 140.033 287.142 137.439C289.735 134.845 291.032 131.489 291.032 127.369C291.032 123.249 289.735 119.893 287.142 117.299C284.624 114.705 281.42 113.408 277.529 113.408C273.639 113.408 270.434 114.705 267.917 117.299C265.399 119.893 264.141 123.249 264.141 127.369C264.141 131.489 265.399 134.807 267.917 137.325C270.434 139.995 273.639 141.33 277.529 141.33ZM277.529 149.34C271.121 149.34 265.781 147.242 261.509 143.046C257.237 138.774 255.1 133.548 255.1 127.369C255.1 121.19 257.237 116.002 261.509 111.806C265.781 107.534 271.121 105.398 277.529 105.398C283.938 105.398 289.278 107.534 293.55 111.806C297.822 116.002 299.958 121.19 299.958 127.369C299.958 133.32 297.822 138.507 293.55 142.932C289.278 147.204 283.938 149.34 277.529 149.34ZM319.027 148.654H310.101V106.084H319.027V113.751C320.476 111.158 322.46 109.136 324.977 107.687C327.571 106.161 330.317 105.398 333.216 105.398C338.175 105.398 342.104 106.886 345.003 109.861C347.902 112.836 349.351 117.07 349.351 122.563V148.654H340.311V125.309C340.311 117.451 337.069 113.523 330.584 113.523C327.304 113.523 324.558 114.591 322.345 116.727C320.133 118.787 319.027 121.724 319.027 125.538V148.654Z" fill="white"/>
<path d="M17.7461 166.152V187.01H46.7852C47.8607 187.01 48.821 187.394 49.666 188.162C50.5111 188.93 50.9336 189.891 50.9336 191.043C50.9336 192.118 50.5111 193.079 49.666 193.924C48.8978 194.692 47.9375 195.076 46.7852 195.076H17.7461V220.197C17.7461 221.35 17.3236 222.348 16.4785 223.193C15.6335 224.038 14.5964 224.461 13.3672 224.461C12.2148 224.461 11.2161 224.038 10.3711 223.193C9.52604 222.348 9.10352 221.35 9.10352 220.197V162.465C9.10352 161.312 9.52604 160.314 10.3711 159.469C11.2161 158.547 12.2148 158.086 13.3672 158.086H50.127C51.2025 158.086 52.1243 158.508 52.8926 159.354C53.7376 160.122 54.1602 161.044 54.1602 162.119C54.1602 163.195 53.776 164.155 53.0078 165C52.2396 165.768 51.2793 166.152 50.127 166.152H17.7461ZM70.7539 203.027C71.2917 207.253 72.9049 210.633 75.5938 213.168C78.3594 215.626 82.1237 216.855 86.8867 216.855C91.7266 216.855 95.8366 216.087 99.2168 214.551C100.292 214.013 101.253 213.744 102.098 213.744C102.943 213.667 103.711 213.975 104.402 214.666C105.171 215.357 105.555 216.126 105.555 216.971C105.555 218.661 104.863 219.852 103.48 220.543C102.174 221.234 100.984 221.849 99.9082 222.387C98.8327 222.924 97.6803 223.385 96.4512 223.77C93.6087 224.538 90.3053 224.922 86.541 224.922C78.7819 224.922 72.7513 222.771 68.4492 218.469C64.224 214.09 62.1113 207.906 62.1113 199.916C62.1113 193.002 63.9167 187.24 67.5273 182.631C71.599 177.484 77.3223 174.91 84.6973 174.91C91.765 174.91 97.3346 177.292 101.406 182.055C105.247 186.51 107.168 192.08 107.168 198.764C107.168 199.916 106.745 200.915 105.9 201.76C105.132 202.605 104.133 203.027 102.904 203.027H70.7539ZM84.6973 182.17C79.0892 182.17 75.0176 184.667 72.4824 189.66C71.5605 191.427 70.9844 193.54 70.7539 195.998H98.6406C98.4102 191.542 96.7585 188.008 93.6855 185.396C91.2272 183.245 88.2311 182.17 84.6973 182.17ZM127.219 183.783C131.674 177.868 136.63 174.91 142.084 174.91H142.545C143.697 174.91 144.658 175.333 145.426 176.178C146.271 176.946 146.693 177.945 146.693 179.174C146.693 180.403 146.271 181.402 145.426 182.17C144.581 182.861 143.544 183.207 142.314 183.207H141.854C138.704 183.207 135.9 183.975 133.441 185.512C130.983 187.048 128.909 189.046 127.219 191.504V220.197C127.219 221.35 126.796 222.348 125.951 223.193C125.106 224.038 124.107 224.461 122.955 224.461C121.803 224.461 120.804 224.038 119.959 223.193C119.114 222.348 118.691 221.35 118.691 220.197V179.75C118.691 178.598 119.076 177.599 119.844 176.754C120.689 175.832 121.726 175.371 122.955 175.371C124.107 175.371 125.106 175.794 125.951 176.639C126.796 177.484 127.219 178.521 127.219 179.75V183.783ZM179.189 182.861C173.658 182.861 168.473 185.896 163.633 191.965V220.197C163.633 221.35 163.21 222.348 162.365 223.193C161.52 224.038 160.521 224.461 159.369 224.461C158.217 224.461 157.218 224.038 156.373 223.193C155.528 222.348 155.105 221.35 155.105 220.197V179.75C155.105 178.521 155.49 177.484 156.258 176.639C157.103 175.794 158.14 175.371 159.369 175.371C160.521 175.371 161.52 175.794 162.365 176.639C163.21 177.407 163.633 178.444 163.633 179.75V183.668C166.168 181.056 168.357 179.174 170.201 178.021C173.735 175.947 177.115 174.91 180.342 174.91C183.645 174.91 186.334 175.41 188.408 176.408C190.482 177.33 192.249 178.674 193.709 180.441C196.628 183.898 198.088 188.201 198.088 193.348V220.197C198.088 221.35 197.665 222.348 196.82 223.193C195.975 224.038 194.977 224.461 193.824 224.461C192.672 224.461 191.673 224.038 190.828 223.193C189.983 222.348 189.561 221.35 189.561 220.197V194.27C189.561 190.736 188.754 187.97 187.141 185.973C185.527 183.898 182.877 182.861 179.189 182.861ZM214.221 178.252C219.521 175.947 225.014 174.833 230.699 174.91C237.076 174.91 242.031 176.869 245.564 180.787C248.714 184.167 250.327 188.393 250.404 193.463V220.197C250.404 221.35 249.943 222.348 249.021 223.193C248.176 224.038 247.139 224.461 245.91 224.461C244.758 224.461 243.759 224.038 242.914 223.193C242.069 222.348 241.646 221.35 241.646 220.197V217.777C239.956 219.544 237.69 221.196 234.848 222.732C232.005 224.192 228.395 224.922 224.016 224.922C219.637 224.922 215.988 223.654 213.068 221.119C210.072 218.507 208.574 215.089 208.574 210.863C208.574 206.177 210.341 202.49 213.875 199.801C217.716 196.882 223.171 195.46 230.238 195.537H241.646V194.73C241.646 190.505 240.609 187.509 238.535 185.742C236.538 183.975 233.388 183.092 229.086 183.092C225.475 183.092 221.288 183.822 216.525 185.281C216.064 185.435 215.488 185.512 214.797 185.512C214.182 185.512 213.529 185.204 212.838 184.59C212.146 183.898 211.762 182.861 211.686 181.479C211.686 180.019 212.531 178.943 214.221 178.252ZM217.217 209.826C217.217 214.896 220.559 217.393 227.242 217.316C230.161 217.316 232.889 216.625 235.424 215.242C238.036 213.783 240.11 212.169 241.646 210.402V202.451H231.506C227.05 202.451 223.555 203.027 221.02 204.18C218.484 205.255 217.217 207.137 217.217 209.826ZM288.893 182.861C283.361 182.861 278.176 185.896 273.336 191.965V220.197C273.336 221.35 272.913 222.348 272.068 223.193C271.223 224.038 270.225 224.461 269.072 224.461C267.92 224.461 266.921 224.038 266.076 223.193C265.231 222.348 264.809 221.35 264.809 220.197V179.75C264.809 178.521 265.193 177.484 265.961 176.639C266.806 175.794 267.843 175.371 269.072 175.371C270.225 175.371 271.223 175.794 272.068 176.639C272.913 177.407 273.336 178.444 273.336 179.75V183.668C275.871 181.056 278.061 179.174 279.904 178.021C283.438 175.947 286.818 174.91 290.045 174.91C293.348 174.91 296.037 175.41 298.111 176.408C300.186 177.33 301.952 178.674 303.412 180.441C306.331 183.898 307.791 188.201 307.791 193.348V220.197C307.791 221.35 307.368 222.348 306.523 223.193C305.678 224.038 304.68 224.461 303.527 224.461C302.375 224.461 301.376 224.038 300.531 223.193C299.686 222.348 299.264 221.35 299.264 220.197V194.27C299.264 190.736 298.457 187.97 296.844 185.973C295.23 183.898 292.58 182.861 288.893 182.861ZM358.264 217.777C353.577 222.54 348.2 224.922 342.131 224.922C336.139 224.922 330.915 222.809 326.459 218.584C321.696 213.821 319.276 207.598 319.199 199.916C319.199 192.387 321.619 186.203 326.459 181.363C330.838 176.984 336.062 174.833 342.131 174.91C348.2 174.91 353.577 177.292 358.264 182.055V158.893C358.264 157.663 358.648 156.665 359.416 155.896C360.261 155.051 361.298 154.629 362.527 154.629C363.757 154.629 364.755 155.051 365.523 155.896C366.368 156.665 366.791 157.663 366.791 158.893V220.197C366.791 221.35 366.368 222.348 365.523 223.193C364.755 224.038 363.757 224.461 362.527 224.461C361.298 224.461 360.261 224.038 359.416 223.193C358.648 222.348 358.264 221.35 358.264 220.197V217.777ZM358.264 190.006C353.962 185.243 348.968 182.9 343.283 182.977C336.062 182.977 331.337 186.165 329.109 192.541C328.341 194.692 327.919 197.15 327.842 199.916C327.842 205.294 329.301 209.557 332.221 212.707C334.91 215.549 338.597 216.932 343.283 216.855C348.968 216.855 353.962 214.512 358.264 209.826V190.006ZM387.418 203.027C387.956 207.253 389.569 210.633 392.258 213.168C395.023 215.626 398.788 216.855 403.551 216.855C408.391 216.855 412.501 216.087 415.881 214.551C416.956 214.013 417.917 213.744 418.762 213.744C419.607 213.667 420.375 213.975 421.066 214.666C421.835 215.357 422.219 216.126 422.219 216.971C422.219 218.661 421.527 219.852 420.145 220.543C418.839 221.234 417.648 221.849 416.572 222.387C415.497 222.924 414.344 223.385 413.115 223.77C410.273 224.538 406.969 224.922 403.205 224.922C395.446 224.922 389.415 222.771 385.113 218.469C380.888 214.09 378.775 207.906 378.775 199.916C378.775 193.002 380.581 187.24 384.191 182.631C388.263 177.484 393.986 174.91 401.361 174.91C408.429 174.91 413.999 177.292 418.07 182.055C421.911 186.51 423.832 192.08 423.832 198.764C423.832 199.916 423.41 200.915 422.564 201.76C421.796 202.605 420.798 203.027 419.568 203.027H387.418ZM401.361 182.17C395.753 182.17 391.682 184.667 389.146 189.66C388.225 191.427 387.648 193.54 387.418 195.998H415.305C415.074 191.542 413.423 188.008 410.35 185.396C407.891 183.245 404.895 182.17 401.361 182.17ZM450.682 216.971C457.673 216.971 461.13 214.781 461.053 210.402C461.053 209.02 460.361 207.944 458.979 207.176C457.596 206.408 455.867 205.755 453.793 205.217C451.719 204.679 449.452 204.103 446.994 203.488C444.536 202.874 442.231 202.029 440.08 200.953C437.929 199.878 436.162 198.495 434.779 196.805C433.396 195.038 432.705 192.887 432.705 190.352C432.705 187.816 433.089 185.665 433.857 183.898C434.626 182.055 435.778 180.48 437.314 179.174C440.618 176.331 445.227 174.91 451.143 174.91C455.906 174.91 460.477 175.678 464.855 177.215C465.701 177.522 466.354 178.06 466.814 178.828C467.352 179.52 467.621 180.288 467.621 181.133C467.621 181.901 467.237 182.669 466.469 183.438C465.777 184.206 465.086 184.59 464.395 184.59C463.703 184.59 462.858 184.436 461.859 184.129C458.863 183.207 455.56 182.746 451.949 182.746C448.339 182.746 445.611 183.361 443.768 184.59C441.924 185.819 441.002 187.355 441.002 189.199C441.002 190.966 441.693 192.272 443.076 193.117C444.459 193.885 446.188 194.577 448.262 195.191C450.413 195.806 452.717 196.382 455.176 196.92C457.711 197.458 460.016 198.264 462.09 199.34C467.007 201.875 469.465 205.755 469.465 210.979C469.465 215.05 467.928 218.315 464.855 220.773C461.629 223.539 457.058 224.922 451.143 224.922C444.843 224.922 439.158 223.501 434.088 220.658C433.012 219.89 432.436 218.968 432.359 217.893C432.359 216.74 432.705 215.78 433.396 215.012C434.165 214.167 434.933 213.744 435.701 213.744C436.469 213.744 437.468 214.013 438.697 214.551C442.308 216.164 446.303 216.971 450.682 216.971Z" fill="white"/>
</svg>
