<svg width="58" height="133" viewBox="0 0 58 133" fill="none" xmlns="http://www.w3.org/2000/svg">
<path d="M53.72 90.4C53.72 91.4133 53.3733 92.2933 52.68 93.04C51.9867 93.7333 51.1333 94.08 50.12 94.08H31.88C30.8667 94.08 30.0133 93.7333 29.32 93.04C28.6267 92.2933 28.28 91.4133 28.28 90.4V88.16C28.28 87.1467 28.6267 86.32 29.32 85.68C30.0133 84.9867 30.8667 84.64 31.88 84.64H50.12C51.1333 84.64 51.9867 84.9867 52.68 85.68C53.3733 86.32 53.72 87.1467 53.72 88.16V90.4Z" fill="white"/>
<path d="M29.6 73.4C29.6 74.4667 29.2533 75.32 28.56 75.96L12.64 91.88C11.7867 92.6267 10.9067 93 10 93H6.88C6.18667 93 5.52 92.7867 4.88 92.36C4.29333 91.9333 3.84 91.4 3.52 90.76C2.93333 89.32 3.2 87.9867 4.32 86.76L18 73C18.5867 72.6267 18.5867 72.1467 18 71.56L4.32 57.88C3.14667 56.8133 2.88 55.48 3.52 53.88C3.78667 53.1867 4.24 52.6267 4.88 52.2C5.52 51.7733 6.18667 51.56 6.88 51.56H10C10.9067 51.56 11.7867 51.9333 12.64 52.68L28.56 68.6C29.2533 69.2933 29.6 70.1467 29.6 71.16V73.4Z" fill="white"/>
</svg>
